<svg width="216" height="216" viewBox="0 0 216 216" fill="none" xmlns="http://www.w3.org/2000/svg">
<path d="M101.025 94.725C104.175 94.725 106.839 93.636 109.017 91.458C111.195 89.28 112.281 86.619 112.275 83.475C112.269 80.331 111.183 77.667 109.017 75.483C106.851 73.299 104.187 72.213 101.025 72.225C97.8631 72.237 95.2021 73.326 93.0421 75.492C90.8821 77.658 89.7931 80.319 89.7751 83.475C89.7571 86.631 90.8461 89.295 93.0421 91.467C95.2381 93.639 97.8991 94.725 101.025 94.725ZM184.95 198C178.65 198 170.175 195.375 159.525 190.125C148.875 184.875 137.475 177.75 125.325 168.75C122.475 169.5 119.589 170.064 116.667 170.442C113.745 170.82 110.781 171.006 107.775 171C90.2251 171 75.3751 164.925 63.2251 152.775C51.0751 140.625 45.0001 125.775 45.0001 108.225C45.0001 105.225 45.2251 102.225 45.6751 99.225C46.1251 96.225 46.7251 93.3 47.4751 90.45C38.6251 78.3 31.5391 66.939 26.2171 56.367C20.8951 45.795 18.2311 37.356 18.2251 31.05C18.2251 27 19.3501 23.814 21.6001 21.492C23.8501 19.17 26.9251 18.006 30.8251 18C34.7251 17.994 39.7891 19.344 46.0171 22.05C52.2451 24.756 60.8311 29.331 71.7751 35.775C68.6251 37.425 65.7001 39.15 63.0001 40.95C60.3001 42.75 57.6751 44.7 55.1251 46.8C52.2751 45.15 49.5001 43.725 46.8001 42.525C44.1001 41.325 41.2501 40.05 38.2501 38.7C40.9501 44.4 43.8391 49.95 46.9171 55.35C49.9951 60.75 53.2561 66.075 56.7001 71.325C62.4001 63.225 69.6751 56.85 78.5251 52.2C87.3751 47.55 97.1251 45.225 107.775 45.225C125.325 45.225 140.214 51.339 152.442 63.567C164.67 75.795 170.781 90.681 170.775 108.225C170.775 118.875 168.411 128.625 163.683 137.475C158.955 146.325 152.544 153.6 144.45 159.3C149.7 162.75 155.064 166.05 160.542 169.2C166.02 172.35 171.606 175.2 177.3 177.75C176.1 174.9 174.864 172.125 173.592 169.425C172.32 166.725 170.856 163.95 169.2 161.1C171.45 158.55 173.475 155.85 175.275 153C177.075 150.15 178.725 147.225 180.225 144.225C187.125 155.925 191.814 164.664 194.292 170.442C196.77 176.22 198.006 181.056 198 184.95C198 189.3 196.8 192.564 194.4 194.742C192 196.92 188.85 198.006 184.95 198ZM123.525 135.225C126.075 135.225 128.214 134.361 129.942 132.633C131.67 130.905 132.531 128.769 132.525 126.225C132.519 123.681 131.658 121.545 129.942 119.817C128.226 118.089 126.087 117.225 123.525 117.225C120.963 117.225 118.827 118.089 117.117 119.817C115.407 121.545 114.543 123.681 114.525 126.225C114.507 128.769 115.371 130.908 117.117 132.642C118.863 134.376 120.999 135.237 123.525 135.225ZM134.775 103.725C136.725 103.725 138.339 103.086 139.617 101.808C140.895 100.53 141.531 98.919 141.525 96.975C141.519 95.031 140.883 93.42 139.617 92.142C138.351 90.864 136.737 90.225 134.775 90.225C132.813 90.225 131.202 90.864 129.942 92.142C128.682 93.42 128.043 95.031 128.025 96.975C128.007 98.919 128.646 100.533 129.942 101.817C131.238 103.101 132.849 103.737 134.775 103.725Z" fill="#EEE1ED"/>
</svg>
